<mxfile host="app.diagrams.net" modified="2024-05-18T08:36:01.172Z" agent="Mozilla/5.0 (Windows NT 10.0; Win64; x64) AppleWebKit/537.36 (KHTML, like Gecko) Chrome/124.0.0.0 Safari/537.36 Edg/124.0.0.0" etag="8fPd4F_oMzLeUpNuOf1N" version="24.4.4" type="github">
  <diagram name="第 1 页" id="WrkQQ6cOKuZSBYo-3zDo">
    <mxGraphModel dx="1450" dy="768" grid="1" gridSize="10" guides="1" tooltips="1" connect="1" arrows="1" fold="1" page="1" pageScale="1" pageWidth="827" pageHeight="1169" math="0" shadow="0">
      <root>
        <mxCell id="0" />
        <mxCell id="1" parent="0" />
        <mxCell id="3bktj8O0OIjGXOeszSDL-7" style="edgeStyle=orthogonalEdgeStyle;rounded=0;orthogonalLoop=1;jettySize=auto;html=1;" edge="1" parent="1" source="3bktj8O0OIjGXOeszSDL-1" target="3bktj8O0OIjGXOeszSDL-5">
          <mxGeometry relative="1" as="geometry" />
        </mxCell>
        <mxCell id="3bktj8O0OIjGXOeszSDL-15" value="&lt;font style=&quot;font-size: 43px;&quot; color=&quot;#ff3333&quot;&gt;×&lt;/font&gt;" style="edgeLabel;html=1;align=center;verticalAlign=middle;resizable=0;points=[];fontSize=43;" vertex="1" connectable="0" parent="3bktj8O0OIjGXOeszSDL-7">
          <mxGeometry x="0.0174" y="-2" relative="1" as="geometry">
            <mxPoint as="offset" />
          </mxGeometry>
        </mxCell>
        <mxCell id="3bktj8O0OIjGXOeszSDL-13" style="rounded=0;orthogonalLoop=1;jettySize=auto;html=1;" edge="1" parent="1" source="3bktj8O0OIjGXOeszSDL-1" target="3bktj8O0OIjGXOeszSDL-4">
          <mxGeometry relative="1" as="geometry" />
        </mxCell>
        <mxCell id="3bktj8O0OIjGXOeszSDL-1" value="客户端&lt;div&gt;&lt;span style=&quot;background-color: initial;&quot;&gt;（PC)&lt;/span&gt;&lt;br&gt;&lt;/div&gt;" style="shape=umlActor;verticalLabelPosition=bottom;verticalAlign=top;html=1;outlineConnect=0;" vertex="1" parent="1">
          <mxGeometry x="30" y="190" width="40" height="80" as="geometry" />
        </mxCell>
        <mxCell id="3bktj8O0OIjGXOeszSDL-14" style="rounded=0;orthogonalLoop=1;jettySize=auto;html=1;" edge="1" parent="1" source="3bktj8O0OIjGXOeszSDL-4" target="3bktj8O0OIjGXOeszSDL-5">
          <mxGeometry relative="1" as="geometry" />
        </mxCell>
        <mxCell id="3bktj8O0OIjGXOeszSDL-4" value="代理服务器" style="image;aspect=fixed;perimeter=ellipsePerimeter;html=1;align=center;shadow=0;dashed=0;spacingTop=3;image=img/lib/active_directory/generic_server.svg;" vertex="1" parent="1">
          <mxGeometry x="160" y="360" width="56" height="100" as="geometry" />
        </mxCell>
        <mxCell id="3bktj8O0OIjGXOeszSDL-5" value="后端&lt;div&gt;（没有办法自己访问）&lt;/div&gt;" style="image;points=[];aspect=fixed;html=1;align=center;shadow=0;dashed=0;image=img/lib/allied_telesis/computer_and_terminals/Server_Desktop.svg;" vertex="1" parent="1">
          <mxGeometry x="300" y="185" width="71" height="90" as="geometry" />
        </mxCell>
        <mxCell id="3bktj8O0OIjGXOeszSDL-22" style="rounded=0;orthogonalLoop=1;jettySize=auto;html=1;exitX=0.5;exitY=0;exitDx=0;exitDy=0;exitPerimeter=0;" edge="1" parent="1" source="3bktj8O0OIjGXOeszSDL-17" target="3bktj8O0OIjGXOeszSDL-20">
          <mxGeometry relative="1" as="geometry" />
        </mxCell>
        <mxCell id="3bktj8O0OIjGXOeszSDL-23" value="&lt;font style=&quot;font-size: 19px;&quot;&gt;错误&lt;/font&gt;" style="edgeLabel;html=1;align=center;verticalAlign=middle;resizable=0;points=[];" vertex="1" connectable="0" parent="3bktj8O0OIjGXOeszSDL-22">
          <mxGeometry x="0.0315" y="3" relative="1" as="geometry">
            <mxPoint as="offset" />
          </mxGeometry>
        </mxCell>
        <mxCell id="3bktj8O0OIjGXOeszSDL-24" style="rounded=0;orthogonalLoop=1;jettySize=auto;html=1;exitX=1;exitY=1;exitDx=0;exitDy=0;exitPerimeter=0;entryX=0;entryY=0.5;entryDx=0;entryDy=0;" edge="1" parent="1" source="3bktj8O0OIjGXOeszSDL-17" target="3bktj8O0OIjGXOeszSDL-21">
          <mxGeometry relative="1" as="geometry" />
        </mxCell>
        <mxCell id="3bktj8O0OIjGXOeszSDL-29" value="同一个地址" style="edgeLabel;html=1;align=center;verticalAlign=middle;resizable=0;points=[];fontSize=14;" vertex="1" connectable="0" parent="3bktj8O0OIjGXOeszSDL-24">
          <mxGeometry x="-0.2157" y="-3" relative="1" as="geometry">
            <mxPoint as="offset" />
          </mxGeometry>
        </mxCell>
        <mxCell id="3bktj8O0OIjGXOeszSDL-17" value="客户端&lt;div&gt;（PC）&lt;/div&gt;&lt;div&gt;&lt;br&gt;&lt;/div&gt;" style="shape=umlActor;verticalLabelPosition=bottom;verticalAlign=top;html=1;outlineConnect=0;" vertex="1" parent="1">
          <mxGeometry x="70" y="580" width="30" height="60" as="geometry" />
        </mxCell>
        <mxCell id="3bktj8O0OIjGXOeszSDL-18" value="后端" style="image;points=[];aspect=fixed;html=1;align=center;shadow=0;dashed=0;image=img/lib/allied_telesis/computer_and_terminals/Server_Desktop.svg;" vertex="1" parent="1">
          <mxGeometry x="270" y="710" width="71" height="90" as="geometry" />
        </mxCell>
        <mxCell id="3bktj8O0OIjGXOeszSDL-19" value="后端" style="image;points=[];aspect=fixed;html=1;align=center;shadow=0;dashed=0;image=img/lib/allied_telesis/computer_and_terminals/Server_Desktop.svg;" vertex="1" parent="1">
          <mxGeometry x="320" y="600" width="63.11" height="80" as="geometry" />
        </mxCell>
        <mxCell id="3bktj8O0OIjGXOeszSDL-20" value="后端" style="image;points=[];aspect=fixed;html=1;align=center;shadow=0;dashed=0;image=img/lib/allied_telesis/computer_and_terminals/Server_Desktop.svg;" vertex="1" parent="1">
          <mxGeometry x="290" y="470" width="71" height="90" as="geometry" />
        </mxCell>
        <mxCell id="3bktj8O0OIjGXOeszSDL-27" style="rounded=0;orthogonalLoop=1;jettySize=auto;html=1;exitX=1;exitY=1;exitDx=0;exitDy=0;" edge="1" parent="1" source="3bktj8O0OIjGXOeszSDL-21" target="3bktj8O0OIjGXOeszSDL-18">
          <mxGeometry relative="1" as="geometry" />
        </mxCell>
        <mxCell id="3bktj8O0OIjGXOeszSDL-32" value="转发" style="edgeLabel;html=1;align=center;verticalAlign=middle;resizable=0;points=[];" vertex="1" connectable="0" parent="3bktj8O0OIjGXOeszSDL-27">
          <mxGeometry x="-0.2454" y="-1" relative="1" as="geometry">
            <mxPoint as="offset" />
          </mxGeometry>
        </mxCell>
        <mxCell id="3bktj8O0OIjGXOeszSDL-21" value="代理服务器" style="image;aspect=fixed;perimeter=ellipsePerimeter;html=1;align=center;shadow=0;dashed=0;spacingTop=3;image=img/lib/active_directory/generic_server.svg;" vertex="1" parent="1">
          <mxGeometry x="188" y="600" width="56" height="100" as="geometry" />
        </mxCell>
        <mxCell id="3bktj8O0OIjGXOeszSDL-25" style="rounded=0;orthogonalLoop=1;jettySize=auto;html=1;exitX=0.75;exitY=0;exitDx=0;exitDy=0;entryX=0.055;entryY=0.844;entryDx=0;entryDy=0;entryPerimeter=0;" edge="1" parent="1" source="3bktj8O0OIjGXOeszSDL-21" target="3bktj8O0OIjGXOeszSDL-20">
          <mxGeometry relative="1" as="geometry" />
        </mxCell>
        <mxCell id="3bktj8O0OIjGXOeszSDL-30" value="转发" style="edgeLabel;html=1;align=center;verticalAlign=middle;resizable=0;points=[];" vertex="1" connectable="0" parent="3bktj8O0OIjGXOeszSDL-25">
          <mxGeometry x="0.0131" y="-2" relative="1" as="geometry">
            <mxPoint as="offset" />
          </mxGeometry>
        </mxCell>
        <mxCell id="3bktj8O0OIjGXOeszSDL-26" style="rounded=0;orthogonalLoop=1;jettySize=auto;html=1;exitX=1;exitY=0.5;exitDx=0;exitDy=0;entryX=0.02;entryY=0.472;entryDx=0;entryDy=0;entryPerimeter=0;" edge="1" parent="1" source="3bktj8O0OIjGXOeszSDL-21" target="3bktj8O0OIjGXOeszSDL-19">
          <mxGeometry relative="1" as="geometry" />
        </mxCell>
        <mxCell id="3bktj8O0OIjGXOeszSDL-31" value="转发" style="edgeLabel;html=1;align=center;verticalAlign=middle;resizable=0;points=[];" vertex="1" connectable="0" parent="3bktj8O0OIjGXOeszSDL-26">
          <mxGeometry x="0.0217" y="3" relative="1" as="geometry">
            <mxPoint as="offset" />
          </mxGeometry>
        </mxCell>
      </root>
    </mxGraphModel>
  </diagram>
</mxfile>
